<?xml version="1.0" ?><svg height="512" id="svg4156" version="1.1" width="512" xmlns="http://www.w3.org/2000/svg" xmlns:cc="http://creativecommons.org/ns#" xmlns:dc="http://purl.org/dc/elements/1.1/" xmlns:rdf="http://www.w3.org/1999/02/22-rdf-syntax-ns#" xmlns:svg="http://www.w3.org/2000/svg"><defs id="defs4158"/><g id="g3001"><g id="layer1" transform="translate(0,448)"><g id="g2999" transform="matrix(0.96000097,0,0,0.96000097,10.240215,-7.6795694)"><g id="g16098" transform="matrix(1.3622346,0,0,1.3622346,25628.711,-32616.9)"><g id="g9707-1-2" style="fill:#1b8e99;fill-opacity:1;fill-rule:evenodd" transform="matrix(1.4110452,0,0,1.4110452,-18488.449,23626.808)"><g id="g9709-5-01" style="fill:#1b8e99;fill-opacity:1"><path d="m -13438.531,10455.031 a 8.0008004,8.0008004 0 0 0 -7.75,7.094 c -2.2,19.412 -14.535,43.138 -32.344,68.875 -17.809,25.737 -40.849,53.546 -63.406,82.375 -44.94,57.433 -88.999,118.932 -83.75,180.25 0,0.242 0.03,0.476 0.03,0.719 0.393,104.116 85.142,188.687 189.344,188.687 104.346,0 189.204,-84.79 189.375,-189.093 l 0,-0.282 c 0,-0.01 0,-0.02 0,-0.03 2.473,-64.398 -42.955,-125.674 -88.469,-182.187 -45.588,-56.606 -91.212,-109.547 -94.875,-149.157 a 8.0008004,8.0008004 0 0 0 -8.156,-7.25 z" id="path9711-2-6" style="font-size:medium;font-style:normal;font-variant:normal;font-weight:normal;font-stretch:normal;text-indent:0;text-align:start;text-decoration:none;line-height:normal;letter-spacing:normal;word-spacing:normal;text-transform:none;direction:ltr;block-progression:tb;writing-mode:lr-tb;text-anchor:start;baseline-shift:baseline;color:#000000;fill:#1b8e99;fill-opacity:1;fill-rule:nonzero;stroke:none;stroke-width:16.00000191;marker:none;visibility:visible;display:inline;overflow:visible;enable-background:accumulate;font-family:Sans;-inkscape-font-specification:Sans" transform="matrix(0.05078068,0,0,0.05078068,705.4082,-521.40722)"/><path d="m -13438.531,10455.031 a 8.0008004,8.0008004 0 0 0 -7.75,7.094 c -2.2,19.412 -14.535,43.138 -32.344,68.875 -17.809,25.737 -40.849,53.546 -63.406,82.375 -44.94,57.433 -88.999,118.932 -83.75,180.25 0,0.242 0.03,0.476 0.03,0.719 0.393,104.116 85.142,188.687 189.344,188.687 104.346,0 189.204,-84.79 189.375,-189.093 l 0,-0.282 c 0,-0.01 0,-0.02 0,-0.03 2.473,-64.398 -42.955,-125.674 -88.469,-182.187 -45.588,-56.606 -91.212,-109.547 -94.875,-149.157 a 8.0008004,8.0008004 0 0 0 -8.156,-7.25 z" id="path9713-7-4" style="font-size:medium;font-style:normal;font-variant:normal;font-weight:normal;font-stretch:normal;text-indent:0;text-align:start;text-decoration:none;line-height:normal;letter-spacing:normal;word-spacing:normal;text-transform:none;direction:ltr;block-progression:tb;writing-mode:lr-tb;text-anchor:start;baseline-shift:baseline;color:#000000;fill:#1b8e99;fill-opacity:1;fill-rule:nonzero;stroke:none;stroke-width:16.00000191;marker:none;visibility:visible;display:inline;overflow:visible;enable-background:accumulate;font-family:Sans;-inkscape-font-specification:Sans" transform="matrix(0.05078068,0,0,0.05078068,705.4082,-521.40722)"/></g><g id="g9715-6-0" style="fill:#1b8e99;fill-opacity:1"/></g><g id="g16086" transform="matrix(-0.70710678,-0.70710678,0.70710678,-0.70710678,-48628.464,27461.232)"><rect height="24" id="rect15738" rx="8" ry="8" style="fill:#37484a;fill-opacity:1;fill-rule:nonzero;stroke:none" transform="scale(-1,1)" width="60" x="18591.703" y="23574.254"/><path d="m -18614.699,23587.782 c 4.432,0 8,3.568 8,8 l 0,57.094 c -10,0.01 -19.994,0.147 -30,0.219 l 0,-57.313 c 0,-4.432 3.568,-8 8,-8 l 14,0 z" id="rect15740" style="fill:#37484a;fill-opacity:1;fill-rule:nonzero;stroke:none"/><rect height="24" id="rect15742" rx="8" ry="8" style="fill:#37484a;fill-opacity:1;fill-rule:nonzero;stroke:none" transform="scale(-1,1)" width="120" x="18561.703" y="23661.039"/><path d="m -18590.699,23676.73 c 2.666,0.148 5.338,0.358 8,0.5 l 0,212.146 c 0,1.231 -0.611,2.446 -1.594,3.187 0,0 -3.425,2.552 -9.625,4.844 -6.2,2.292 -15.431,4.532 -27.781,4.532 -12.35,0 -21.581,-2.24 -27.781,-4.532 -6.202,-2.292 -9.657,-4.844 -9.657,-4.844 -0.972,-0.747 -1.567,-1.961 -1.562,-3.187 l 0,-212.521 c 2.667,0.123 5.329,0.22 8,0.282 l 0,210.052 c 1.194,0.69 2.998,1.62 5.969,2.718 5.365,1.984 13.642,4.032 25.031,4.032 11.389,0 19.635,-2.048 25,-4.032 2.973,-1.099 4.806,-2.027 6,-2.718 z" id="rect15744" style="font-size:medium;font-style:normal;font-variant:normal;font-weight:normal;font-stretch:normal;text-indent:0;text-align:start;text-decoration:none;line-height:normal;letter-spacing:normal;word-spacing:normal;text-transform:none;direction:ltr;block-progression:tb;writing-mode:lr-tb;text-anchor:start;baseline-shift:baseline;color:#000000;fill:#37484a;fill-opacity:1;stroke:none;stroke-width:8;marker:none;visibility:visible;display:inline;overflow:visible;enable-background:accumulate;font-family:Sans;-inkscape-font-specification:Sans"/><path d="m -18603.699,23896.636 0,44.677 c 0,1.45 -0.87,2.864 -2.157,3.532 0,0 -6.668,3.5 -15.843,3.5 -9.176,0 -15.844,-3.5 -15.844,-3.5 -1.286,-0.668 -2.15,-2.082 -2.156,-3.532 l 0,-44.677 c 2.437,0.507 5.094,0.941 8,1.25 l 0,40.709 c 1.965,0.763 5.101,1.75 10,1.75 4.898,0 8.034,-0.987 10,-1.75 l 0,-40.709 c 2.905,-0.309 5.563,-0.743 8,-1.25 z" id="rect15746" style="font-size:medium;font-style:normal;font-variant:normal;font-weight:normal;font-stretch:normal;text-indent:0;text-align:start;text-decoration:none;line-height:normal;letter-spacing:normal;word-spacing:normal;text-transform:none;direction:ltr;block-progression:tb;writing-mode:lr-tb;text-anchor:start;baseline-shift:baseline;color:#000000;fill:#37484a;fill-opacity:1;stroke:none;stroke-width:8;marker:none;visibility:visible;display:inline;overflow:visible;enable-background:accumulate;font-family:Sans;-inkscape-font-specification:Sans"/><path d="m -18625.699,23956.032 c 2.595,0.152 5.184,0.166 7.593,0.157 0.131,-0.01 0.275,-0.02 0.407,-0.03 l 0,76.282 -8,13.843 0,-90.25 z" id="rect15748" style="fill:#37484a;fill-opacity:1;stroke:none"/><rect height="8" id="rect15821" rx="4" ry="4" style="fill:#37484a;fill-opacity:1;fill-rule:nonzero;stroke:none" transform="scale(-1,1)" width="36" x="18603.699" y="23707.986"/><rect height="8" id="rect15823" rx="4" ry="4" style="fill:#37484a;fill-opacity:1;fill-rule:nonzero;stroke:none" transform="scale(-1,1)" width="36" x="18603.699" y="23731.461"/><path d="m -18596.699,23777.001 0,38.594 c 0.288,22.508 -0.481,45.065 0.125,67.5 -15.615,6.694 -33.951,6.499 -49.782,0.406 -0.719,-35.125 -0.229,-70.941 -0.281,-106.5 l 49.938,0 z" id="rect15827" style="fill:#1b8e99;fill-opacity:1;fill-rule:nonzero;stroke:none"/><rect height="13.754292" id="rect16074" rx="3.4409127" ry="3.6829269" style="fill:#37484a;fill-opacity:1;fill-rule:nonzero;stroke:none" width="50.178001" x="-18646.752" y="23756.24"/></g></g></g></g></g></svg>